<svg xmlns="http://www.w3.org/2000/svg" height="56.5" width="259.52">
    <path d="M22.83 35.54l.24-2.67H2.79v-9.73h17.8l.16-2.7H2.79V10.7h20.04l.24-2.7H0v27.54zm6.8 0l9.47-12.01 9.5 12.01h3.32l-11.16-14.1L51.38 8h-3.4l-8.92 11.28L30.17 8h-3.32L37.4 21.4 26.23 35.54zm51.07 0h3.09L69.69 8h-2.32L53.24 35.54h3.09l3.24-6.37h17.89zM68.53 11.59l7.69 15.14H60.81zm23.03 23.95v-12.4h20.93v12.4h2.79V8h-2.79v12.44H91.56V8h-2.78v27.54zm50.68 0V25.19h14.95c3.98 0 7.26-2.51 7.26-8.62 0-6.06-3.28-8.57-7.26-8.57h-17.73v27.54zm14.95-24.84c2.47 0 4.52 1.74 4.52 5.87 0 4.21-2.05 5.95-4.52 5.95h-14.95V10.7zm37.66 24.84h3.09L183.84 8h-2.31l-14.14 27.54h3.09l3.24-6.37h17.89zm-12.16-23.95l7.68 15.14h-15.41zm37.97 13.6c4.02 0 7.26-2.51 7.26-8.62 0-6.06-3.24-8.57-7.26-8.57h-17.73v27.54h2.78V25.19h8.81l9.34 10.35h3.6l-9.31-10.35zm0-14.49c2.47 0 4.52 1.74 4.52 5.87 0 4.21-2.05 5.95-4.52 5.95h-14.95V10.7zm17.11 24.84v-12.4h6.95l11.21 12.4h3.59l-12.36-13.75L259.52 8h-3.59l-11.24 12.44h-6.92V8h-2.78v27.54z" xmlns:name="main_text" fill="#292929"/><path d="M71.73 49.65l1.06-1.06v-3.7l-1.36-1.35h-6.94V56.5h6.96l1.72-1.72v-3.67zm.89 1.67v3.25l-1.39 1.37h-6.18v-6.01h6.18zm-7.57-7.22h6.18l1 1v3.27l-1 1h-6.18zm19.47 12.4h5.24l1.72-1.7V43.54h-.55v11.02l-1.41 1.38h-4.76l-1.4-1.38V43.54h-.56V54.8zm23.39-12.4l1.39.44.16-.52-1.42-.48h-5.41l-1.7 1.7v2.13l.42.87 7.35 3.52.34.63v2.18l-1.39 1.37h-5.04l-1.39-.46-.16.52 1.5.5h5.31l1.72-1.7v-2.56l-.48-.91-7.31-3.48-.32-.63v-1.75l1.37-1.37zm15.97 12.4v-.56h-2.51V44.1h2.51v-.56h-5.59v.56h2.52v11.84h-2.52v.56zm17.32 0h.83V43.54h-.56v12.33l-7.31-12.33h-.83V56.5h.55V44.17zm11.2 0h7.9v-.56h-7.35v-6.01h6.57v-.56h-6.57V44.1h7.35v-.56h-7.9zm23.4-12.4l1.39.44.16-.52-1.42-.48h-5.41l-1.7 1.7v2.13l.42.87 7.35 3.52.34.63v2.18l-1.39 1.37h-5.04l-1.38-.46-.17.52 1.5.5h5.31l1.72-1.7v-2.56l-.48-.91-7.31-3.48-.32-.63v-1.75l1.37-1.37zm17.55 0l1.39.44.17-.52-1.43-.48h-5.41l-1.7 1.7v2.13l.43.87 7.35 3.52.33.63v2.18l-1.39 1.37h-5.03l-1.39-.46-.17.52 1.5.5h5.31l1.72-1.7v-2.56l-.48-.91-7.31-3.48-.31-.63v-1.75l1.37-1.37z" xmlns:name="slogan_text" fill="#292929"/>
</svg>