<svg xmlns="http://www.w3.org/2000/svg" version="1.1" xmlns:xlink="http://www.w3.org/1999/xlink" xmlns:svgjs="http://svgjs.com/svgjs" height="64" width="287.02000427246094"><defs id="SvgjsDefs3380"></defs><g id="SvgjsG3381" rel="mainfill" name="main_text" xmlns:name="main_text" transform="translate(77.47000002861023,-211.98999786376953)" fill="#ffffff"><path d="M8.95 238.66C7.05 238.66 4.28 238.54 1.63 238.10L1.53 239.80C4.15 240.15 6.92 240.35 9.17 240.35C12.66 240.35 16.91 239.65 16.91 235.45C16.91 231.74 13.57 231.07 9.17 230.33C5.51 229.74 3.54 229.39 3.54 226.97C3.54 224.00 6.55 223.73 9.35 223.73C11.15 223.73 13.67 223.86 16.02 224.28L16.14 222.57C13.80 222.25 11.25 222.03 9.27 222.03C5.44 222.03 1.76 222.84 1.76 226.92C1.76 230.80 5.04 231.35 9.17 232.06C12.53 232.61 15.16 232.93 15.16 235.45C15.16 238.39 11.62 238.66 8.95 238.66ZM27.15 240.35C31.52 240.35 34.81 239.13 34.81 232.83C34.81 226.62 31.55 225.69 27.81 225.69C23.46 225.69 20.17 226.92 20.17 233.20C20.17 239.43 23.44 240.35 27.15 240.35ZM27.10 238.66C24.45 238.66 21.95 238.24 21.95 233.15C21.95 228.13 24.45 227.39 27.91 227.39C30.51 227.39 33.06 227.81 33.06 232.90C33.06 237.92 30.58 238.66 27.10 238.66ZM45.61 238.66C42.47 238.66 39.98 237.01 39.98 233.00C39.98 228.36 42.47 227.39 45.61 227.39C47.10 227.39 49.22 227.51 51.18 227.96L51.30 226.23C49.30 225.91 47.17 225.69 45.49 225.69C41.46 225.69 38.20 227.14 38.20 233.00C38.20 238.20 41.46 240.35 45.49 240.35C47.17 240.35 49.30 240.15 51.30 239.80L51.18 238.10C49.22 238.54 47.10 238.66 45.61 238.66ZM56.99 223.95L56.99 220.96L55.23 220.96L55.23 223.95ZM55.23 226.06L55.23 240L56.99 240L56.99 226.06ZM68.98 227.39C71.43 227.39 73.40 228.85 73.40 231.52L64.68 232.46C62.50 232.66 61.26 233.82 61.26 235.85C61.26 238.89 63.39 240.35 67.35 240.35C70.14 240.35 72.32 239.75 73.60 238.22C73.92 239.36 74.76 240.20 76.49 240.20C76.64 240.20 76.79 240.20 76.99 240.17L76.89 238.47C76.89 238.47 76.89 238.54 76.49 238.54C75.43 238.54 75.26 237.50 75.26 236.51L75.26 231.54C75.26 227.61 72.54 225.69 69.05 225.69C67.07 225.69 64.53 225.91 62.18 226.23L62.33 227.96C64.65 227.51 67.15 227.39 68.98 227.39ZM73.40 235.57C72.91 237.77 70.68 238.66 67.45 238.66C64.60 238.66 63.09 237.77 63.09 235.80C63.09 234.86 63.64 234.24 64.70 234.14L73.40 233.25ZM81.59 240L81.59 220.67L79.83 220.72L79.83 240ZM113.21 240L113.21 222.37L111.45 222.37L111.45 237.06L98.25 222.37L96.79 222.37L96.79 240L98.57 240L98.57 225.34L111.80 240ZM125.45 240.35C126.88 240.35 129.60 240.15 131.92 239.80L131.80 238.10C129.57 238.54 126.66 238.66 125.59 238.66C122.03 238.66 119.88 237.26 119.56 233.84L132.39 233.84L132.39 233.00C132.39 227.37 129.72 225.69 125.35 225.69C121.29 225.69 117.76 227.12 117.76 232.90C117.76 238.32 120.87 240.35 125.45 240.35ZM125.30 227.47C128.54 227.47 130.39 228.48 130.61 232.19L119.56 232.19C119.83 228.21 122.45 227.47 125.30 227.47ZM138.33 227.71L143.12 227.71L143.12 226.06L138.33 226.06L138.33 222.37L136.55 222.37L136.55 226.06L134.79 226.06L134.79 227.71L136.55 227.71L136.55 235.99C136.55 239.53 138.10 240.17 140.63 240.17C141.24 240.17 142.04 240.17 143.12 239.88L143.00 238.17C142.01 238.42 140.80 238.47 140.35 238.47C139.22 238.47 138.33 238.12 138.33 235.99ZM150.99 240L155.24 228.90L159.49 240L161.00 240L165.99 226.06L164.16 226.06L160.23 237.31L155.98 226.06L154.52 226.06L150.24 237.31L146.31 226.06L144.51 226.06L149.48 240ZM175.21 240.35C179.59 240.35 182.88 239.13 182.88 232.83C182.88 226.62 179.62 225.69 175.88 225.69C171.53 225.69 168.24 226.92 168.24 233.20C168.24 239.43 171.51 240.35 175.21 240.35ZM175.16 238.66C172.52 238.66 170.02 238.24 170.02 233.15C170.02 228.13 172.52 227.39 175.98 227.39C178.58 227.39 181.12 227.81 181.12 232.90C181.12 237.92 178.65 238.66 175.16 238.66ZM188.84 240L188.84 228.03C190.89 227.69 192.99 227.54 194.05 227.54L194.05 225.88C192.35 225.88 189.55 226.15 187.08 226.62L187.08 240ZM198.68 240L198.68 233.84L201.69 233.84L207.23 240L209.55 240L203.28 233.03L209.55 226.06L207.23 226.06L201.69 232.19L198.68 232.19L198.68 220.67L196.92 220.77L196.92 240Z" fill="#ffffff" style="fill: rgb(255, 255, 255);"></path></g><g id="SvgjsG3382" rel="mainfill" name="slogan_text" xmlns:name="slogan_text" transform="translate(84.6549990773201,-188.7699966430664)" fill="#ffffff"><path d="M0.68 232.78L1.72 232.78L1.72 240L3.32 240L3.15 238.24L3.15 232.78L5.03 232.78L5.54 231.62L3.15 231.62L3.15 230.07C3.15 229.03 3.68 228.50 4.36 228.50C4.77 228.50 5.20 228.69 5.59 229.01L6.15 227.73C5.54 227.37 4.84 227.15 4.19 227.15C2.88 227.15 1.72 228.02 1.72 230.37L1.72 231.62L0.68 231.62ZM13.24 235.94C13.24 236.22 13.33 240.22 16.84 240.22C19.46 240.22 20.99 238.07 20.99 235.62C20.99 232.72 19.46 231.36 17.41 231.36C14.82 231.36 13.24 233.30 13.24 235.94ZM14.81 235.79C14.81 234.00 15.68 232.50 17.11 232.50C18.54 232.50 19.43 234.00 19.43 235.79C19.43 237.58 18.54 239.08 17.11 239.08C15.68 239.08 14.81 237.58 14.81 235.79ZM35.43 231.84C35.12 231.51 34.74 231.36 34.35 231.36C32.80 231.36 32.02 232.72 31.69 233.30L31.69 231.43L30.04 231.62L30.26 233.18L30.26 240L31.86 240L31.69 238.72L31.69 235.65C31.69 234.14 32.89 232.88 33.98 232.88C34.22 232.88 34.57 233.00 34.85 233.24ZM59.42 228.79L55.18 228.79L55.40 230.36L55.40 240L58.91 240C62.08 240 64.10 237.51 64.10 234.33C64.10 230.53 61.79 228.79 59.42 228.79ZM59.11 230.01C61.05 230.01 62.45 232.03 62.45 234.43C62.45 236.80 61.05 238.77 59.11 238.77L56.93 238.77L56.93 230.01ZM76.32 231.36C73.72 231.36 72.56 233.56 72.56 235.96C72.56 238.07 73.83 240.22 76.07 240.22C78.18 240.22 79.39 239.05 79.39 239.05L79.15 237.75C79.15 237.75 77.92 238.91 76.48 238.91C74.82 238.91 74.11 237.34 74.07 235.81L78.83 235.81L79.22 235.37C79.18 234.31 78.98 231.36 76.32 231.36ZM76.12 232.47C77.29 232.47 77.62 233.83 77.67 234.72L74.16 234.72C74.40 233.49 74.96 232.47 76.12 232.47ZM94.88 231.39L93.38 231.62L91.23 237.07L90.87 238.31L90.62 237.07L88.66 231.39L86.99 231.62L87.74 233.03L90.07 240L91.35 240.22ZM106.43 231.36C103.82 231.36 102.67 233.56 102.67 235.96C102.67 238.07 103.94 240.22 106.18 240.22C108.29 240.22 109.50 239.05 109.50 239.05L109.26 237.75C109.26 237.75 108.03 238.91 106.59 238.91C104.93 238.91 104.22 237.34 104.18 235.81L108.94 235.81L109.33 235.37C109.29 234.31 109.09 231.36 106.43 231.36ZM106.23 232.47C107.40 232.47 107.73 233.83 107.78 234.72L104.27 234.72C104.51 233.49 105.07 232.47 106.23 232.47ZM120.05 227.13L118.39 227.32L118.62 228.89L118.62 240L120.22 240L120.05 238.72ZM129.32 235.94C129.32 236.22 129.40 240.22 132.91 240.22C135.54 240.22 137.07 238.07 137.07 235.62C137.07 232.72 135.54 231.36 133.49 231.36C130.90 231.36 129.32 233.30 129.32 235.94ZM130.88 235.79C130.88 234.00 131.75 232.50 133.18 232.50C134.62 232.50 135.50 234.00 135.50 235.79C135.50 237.58 134.62 239.08 133.18 239.08C131.75 239.08 130.88 237.58 130.88 235.79ZM146.34 244.09L147.94 244.09L147.77 242.81L147.77 240.12C148.25 240.17 148.73 240.22 149.10 240.22C151.55 240.22 153.26 238.07 153.26 235.62C153.26 232.89 151.83 231.39 150.19 231.39C148.59 231.39 147.77 232.43 147.77 232.43L147.77 231.43L146.12 231.62L146.34 233.18ZM147.77 238.99L147.77 233.71C147.77 233.71 148.55 232.60 149.70 232.60C150.82 232.60 151.67 233.85 151.67 235.77C151.67 237.56 150.63 239.11 149.37 239.11C148.71 239.11 147.74 238.99 147.77 238.99ZM165.59 231.36C162.99 231.36 161.83 233.56 161.83 235.96C161.83 238.07 163.11 240.22 165.34 240.22C167.45 240.22 168.66 239.05 168.66 239.05L168.42 237.75C168.42 237.75 167.20 238.91 165.75 238.91C164.10 238.91 163.38 237.34 163.35 235.81L168.10 235.81L168.49 235.37C168.46 234.31 168.25 231.36 165.59 231.36ZM165.39 232.47C166.57 232.47 166.89 233.83 166.94 234.72L163.43 234.72C163.67 233.49 164.23 232.47 165.39 232.47ZM182.94 231.84C182.63 231.51 182.26 231.36 181.87 231.36C180.32 231.36 179.53 232.72 179.21 233.30L179.21 231.43L177.56 231.62L177.78 233.18L177.78 240L179.38 240L179.21 238.72L179.21 235.65C179.21 234.14 180.40 232.88 181.49 232.88C181.73 232.88 182.09 233.00 182.36 233.24ZM190.51 239.23C190.51 239.23 191.33 240.22 193.06 240.22C194.87 240.22 196.03 239.15 196.03 237.63C196.03 234.89 191.87 235.28 191.87 233.46C191.87 232.89 192.43 232.45 193.13 232.45C193.76 232.45 194.65 232.62 195.31 233.30L195.72 231.94C195.30 231.68 194.58 231.36 193.27 231.36C191.67 231.36 190.42 232.33 190.42 233.87C190.42 236.40 194.58 236.32 194.58 237.85C194.58 238.70 193.90 238.99 193.08 238.99C191.63 238.99 190.66 237.85 190.66 237.85Z" fill="#ffffff" style="fill: rgb(255, 255, 255);"></path></g><g id="SvgjsG3383" rel="mainfill" name="symbol" xmlns:name="symbol_mainfill" transform="translate(0,0) scale(0.5)" fill="#ffffff"><path d="M64 0c-35.323 0-64 28.677-64 64s28.677 64 64 64 64-28.677 64-64-28.677-64-64-64zm8.563 4.625c4.885.696 9.569 1.984 14 3.781-.039.059-.063.125-.063.188 0 .5.406 1.406.906 1.906s.094.5-.906 0-2.713-.906-3.813-.906-1.875.806-1.875 1.906c0 1.1.375 2.313.875 2.813s.5 1.375 0 1.875.025 1.813 1.125 2.813c1.1 1 2.281 1.506 2.781.906s.906-.094.906.906.406 2.281.906 2.781.5.906 0 .906-1.694 1.1-2.594 2.5l-.406.594c-.9 1.4-2.094 2.5-2.594 2.5s-.5.406 0 .906 1.375.994 1.875 1.094c.5.1 1.406 1.006 1.906 1.906.5.9-.394 1.688-2.094 1.688h-1.5c-1.7 0-2.594 1.313-2.094 2.813.5 1.5.5 2.813 0 2.813s-.5.775 0 1.875 1.781 1.906 2.781 1.906c1 0 1.906.119 1.906.219s1.106-.625 2.406-1.625l.813-.594c1.3-1 2.375-2.594 2.375-3.594s-.094-2.306-.094-2.906c0-.6.494-1.006 1.094-.906.6.1 1.5-.275 2-.875s1.719-.5 2.719 0c1 .5 2.688 1.375 3.688 1.875s1.906 1.813 1.906 2.813c0 1 .406 1.813.906 1.813s1.006-.813.906-1.813c-.1-1-.525-2.313-1.125-2.813s-1.781-1.275-2.781-1.875c-1-.6-2.219-1.406-2.719-1.906s-.594-.994-.094-1.094c.5-.1 2.013.694 3.313 1.594l.688.5c1.3 1 2.906 2.188 3.406 2.688s1 1.313 1 1.813.494.906 1.094.906c.6 0 1-.813 1-1.813s.813-1 1.813 0 2.306 1.406 2.906.906c.6-.5 1.375-.094 1.875.906s.813 2.694.813 3.594c0 .9-1.313 1.406-2.813.906-1.5-.5-3.181-.413-3.781.188-.6.6-.5 1.406 0 1.906s.094.906-.906.906-2.313-.4-2.813-1-1.275-.5-1.875 0c-.6.5-1.406.5-1.906 0s-.906-1.806-.906-2.906-.4-1.906-1-1.906-1.412.406-1.813.906c-.4.5-1.681.906-2.781.906s-2.306.5-2.906 1c-.5.5-1.406 1.281-1.906 1.781s-1.781 1.112-2.781 1.313c-1 .2-1.906.606-1.906.906 0 .3-.806 1-1.906 1.5-1.1.5-1.906 1.781-1.906 2.781 0 1-.594 3.406-1.594 4.406-1 1-2.487 3.094-3.188 4.594l-1.125 2.094c-.7 1.5-1.281 3.125-1.281 3.625s.406 1.781.906 2.781c.5 1 .5 2.713 0 3.813s-.906 2.281-.906 2.781.406 1.406.906 1.906.875 1.406.875 1.906.406 1.406.906 1.906 1.813 1.406 2.813 1.906c1 .5 1.906 1.375 1.906 1.875s1.1 1.725 2.5 2.625l.594.375c1.4.9 3.306.813 4.406-.188 1.1-1 2.681-1.906 3.781-1.906s3.006-.688 4.406-1.688l.594-.406c1.4-.9 2.906-1.188 3.406-.688s1.813.875 2.813.875c1 0 1.875.806 1.875 1.906 0 1.1-.375 2.313-.875 2.813s-.125 1.781.875 2.781c1 1 1.906 2.313 1.906 2.813s-.406 1.406-.906 1.906-.875 1.406-.875 1.906-.719 2.075-1.719 3.375l-.406.625c-.9 1.4-.7 3.275.5 4.375h-.281c-.3 0-2.219 3.125-2.219 3.125-.238.387-.326.732-.344 1.063-10.165 7.915-22.949 12.625-36.844 12.625-9.326 0-18.161-2.117-26.031-5.906.283-.114.491-.272.625-.406.5-.5.906-1.375.906-1.875s1.313-.906 2.813-.906c1.5 0 3.181-.806 3.781-1.906.6-1.1.906-2.688.906-3.688s.806-2.313 1.906-2.813c1.1-.5 1.906-1.906 1.906-2.906 0-1-.806-2.281-1.906-2.781-1.1-.5-2.313-1.406-2.813-1.906s-2.181-1.313-3.781-1.813-4-1.481-5.5-2.281l-2.219-1.125c-1.5-.8-2.688-1.781-2.688-2.281 0-.5-.406-1.406-.906-1.906s-1.406-1.813-1.906-2.813c-.5-1-2.106-2.6-3.406-3.5l-.594-.375c-1.4-.9-3.081-2.912-3.781-4.313l-1.125-2.094c-.7-1.5-2.188-2.719-3.188-2.719s-2.594-1.1-3.594-2.5l-.406-.594c-.9-1.4-2.094-2.094-2.594-1.594-.5.5-1.306.5-1.906 0-.6-.5-.906-2.306-.906-3.906v-1.5c0-1.7-.406-3.406-.906-3.906s-.5-1.781 0-2.781c.5-1 .906-2.712.906-3.813 0-1.1-.406-1.506-.906-.906s-.675-.4-.375-2l.875-5.375c.032-.173.086-.333.125-.5.232-.668.464-1.343.719-2 .013-.023.018-.041.031-.063.182-.291.357-.438.531-.438.5 0 .906.375.906.875s.406.906.906.906.588 1.306.188 2.906l-.188 1.5c-.4 1.6-.019 2.906.781 2.906h.406c.4 0 1.313-4.594 1.313-4.594.3-1.6 1.694-3.7 3.094-4.5l.5-.313c1.4-.9 2.5-2.094 2.5-2.594s.406-1 .906-1 .906-.406.906-.906.375-1.406.875-1.906 1.406-.5 1.906 0 .906.5.906 0 .406-1.406.906-1.906 1.406-.875 1.906-.875.875.375.875.875.406.906.906.906 1.813-.406 2.813-.906c1-.5 1.906-1.375 1.906-1.875s-.406-.906-.906-.906-.906-.406-.906-.906v-1.906c0-.5.406-.5.906 0s1.781.5 2.781 0c1-.5 1.506-.5.906 0s-.906 1.406-.906 1.906.406 1.406.906 1.906 1.406.906 1.906.906.906-.806.906-1.906c0-1.1-.406-1.906-.906-1.906s-.5-.406 0-.906 1.406-1.781 1.906-2.781c.5-1 .5-1.906 0-1.906s-.906-.406-.906-.906.406-1.406.906-1.906.906-1.406.906-1.906-.906-.5-1.906 0c-1 .5-1.406.125-.906-.875.5-1 .5-1.906 0-1.906s-1.806.4-2.906 1-1.9 1.406-2 1.906c-.1.5-1.1 1.6-2.5 2.5l-.281.188c-1.4.9-2 .913-1.5-.188.5-1.1.875-2.313.875-2.813s1.1-1.694 2.5-2.594l.625-.406c1.4-.9 3.781-1.688 5.281-1.688 1.5 0 2.813.375 2.813.875s.406.906.906.906 2.075-.688 3.375-1.688l.625-.406c1.4-.9 2.875-2.094 3.375-2.594s.5-.906 0-.906-.688-.313-.688-.813c0-.5.806-1.375 1.906-1.875 1.1-.5 2.281-.5 2.781 0s.5 1.375 0 1.875-1.694 2.106-2.594 3.406l-.406.594c-.9 1.4-1.688 2.906-1.688 3.406s.406 1.406.906 1.906 1.406.906 1.906.906 1.375-.406 1.875-.906 2.106-1.694 3.406-2.594l.594-.406c1.4-.9 3.306-1.688 4.406-1.688 1.1 0 1.906-.306 1.906-.906 0-.6.406-1.313.906-1.813s.906-1.781.906-2.781c0-1 1.281-1.906 2.781-1.906 1.5 0 3.213-.406 3.813-.906.15-.125.191-.258.156-.375zm-3.656 8.781c-1.7 0-3.406.5-3.906 1s-.094 1.406.906 1.906 2.281.375 2.781-.125.906-1.694.906-2.594v-.188h-.688zm8.281 6.219c-.338 0-.7.125-1 .375-.6.5.1 1.694 1.5 2.594l.813.5c1.3 1 2 3 1.5 4.5s.194 1.994 1.594 1.094l.594-.375c1.4-.9 2.125-2.125 1.625-2.625l-1.906-1.875-1.906-1.906-1.906-1.906c-.25-.25-.569-.375-.906-.375zm-.188 3.688c-.338 0-.656.125-.906.375-.5.5-.906 1.813-.906 2.813 0 1 .806 1 1.906 0 1.1-1 1.506-2.313.906-2.813-.3-.25-.662-.375-1-.375zm-67.094 30.563c-.183.038-.313.25-.313.625 0 1.1.406 2.406.906 2.906s1.406.906 1.906.906.181-1.1-.719-2.5l-.5-.719c-.5-.875-.977-1.281-1.281-1.219zm-5.719 5.531c.164 1.049.428 2.048.719 2.688.5 1.1.906 3.119.906 4.719s.375 3.181.875 3.781c.5.6 1.406 1.813 1.906 2.813.5 1 .5 2.306 0 2.906-.5.6-.906 1.375-.906 1.875v2.813c0 .78-.056 2.057-.156 3.344-2.289-6.356-3.531-13.195-3.531-20.344 0-1.549.072-3.074.188-4.594zm10.125.906c-.5 0-1.506.375-1.906.875-.5.5 0 1.406 1 1.906s1.906.094 1.906-.906-.5-1.875-1-1.875zm5.094 5.031c-.239.005-.406.531-.406 1.469 0 1.5.406 2.781.906 2.781s.906-.406.906-.906-.406-1.781-.906-2.781c-.188-.375-.356-.565-.5-.563z" fill="#ffffff" style="fill: rgb(255, 255, 255);"></path></g></svg>